<svg width="16" height="16" viewBox="0 0 16 16" fill="none" xmlns="http://www.w3.org/2000/svg">
<path d="M10.5333 1.47333C10.26 1.2 9.78662 1.38667 9.78662 1.76667V4.09333C9.78662 5.06667 10.6133 5.87333 11.62 5.87333C12.2533 5.88 13.1333 5.88 13.8866 5.88C14.2666 5.88 14.4666 5.43333 14.2 5.16667C13.24 4.2 11.52 2.46 10.5333 1.47333Z" fill="#FF9C00"/>
<path d="M13.6665 6.79333H11.7398C10.1598 6.79333 8.87317 5.50666 8.87317 3.92666V1.99999C8.87317 1.63333 8.57317 1.33333 8.2065 1.33333H5.37984C3.3265 1.33333 1.6665 2.66666 1.6665 5.04666V10.9533C1.6665 13.3333 3.3265 14.6667 5.37984 14.6667H10.6198C12.6732 14.6667 14.3332 13.3333 14.3332 10.9533V7.45999C14.3332 7.09333 14.0332 6.79333 13.6665 6.79333ZM7.6665 11.8333H4.99984C4.7265 11.8333 4.49984 11.6067 4.49984 11.3333C4.49984 11.06 4.7265 10.8333 4.99984 10.8333H7.6665C7.93984 10.8333 8.1665 11.06 8.1665 11.3333C8.1665 11.6067 7.93984 11.8333 7.6665 11.8333ZM8.99984 9.16666H4.99984C4.7265 9.16666 4.49984 8.93999 4.49984 8.66666C4.49984 8.39333 4.7265 8.16666 4.99984 8.16666H8.99984C9.27317 8.16666 9.49984 8.39333 9.49984 8.66666C9.49984 8.93999 9.27317 9.16666 8.99984 9.16666Z" fill="#FF9C00"/>
</svg>
