<svg width="17" height="17" viewBox="0 0 17 17" fill="none" xmlns="http://www.w3.org/2000/svg">
<path d="M8.50004 16.1146C4.78837 16.1146 1.77087 13.0971 1.77087 9.38542C1.77087 5.67375 4.78837 2.65625 8.50004 2.65625C12.2117 2.65625 15.2292 5.67375 15.2292 9.38542C15.2292 13.0971 12.2117 16.1146 8.50004 16.1146ZM8.50004 3.71875C5.37629 3.71875 2.83337 6.26167 2.83337 9.38542C2.83337 12.5092 5.37629 15.0521 8.50004 15.0521C11.6238 15.0521 14.1667 12.5092 14.1667 9.38542C14.1667 6.26167 11.6238 3.71875 8.50004 3.71875Z" fill="#A9A9A9"/>
<path d="M8.5 9.73959C8.20958 9.73959 7.96875 9.49876 7.96875 9.20834V5.66667C7.96875 5.37626 8.20958 5.13542 8.5 5.13542C8.79042 5.13542 9.03125 5.37626 9.03125 5.66667V9.20834C9.03125 9.49876 8.79042 9.73959 8.5 9.73959Z" fill="#A9A9A9"/>
<path d="M10.625 1.94792H6.375C6.08458 1.94792 5.84375 1.70709 5.84375 1.41667C5.84375 1.12626 6.08458 0.885422 6.375 0.885422H10.625C10.9154 0.885422 11.1562 1.12626 11.1562 1.41667C11.1562 1.70709 10.9154 1.94792 10.625 1.94792Z" fill="#A9A9A9"/>
</svg>
